<mxfile host="app.diagrams.net" modified="2023-06-15T06:13:09.600Z" agent="Mozilla/5.0 (Macintosh; Intel Mac OS X 10_15_7) AppleWebKit/537.36 (KHTML, like Gecko) Chrome/114.0.0.0 Safari/537.36" etag="YzV2-FZ7GA0mLFSX45yT" version="21.4.0" type="github">
  <diagram id="odRmKXrj-ed6ITFRjMFb" name="ページ1">
    <mxGraphModel dx="2297" dy="2184" grid="1" gridSize="10" guides="1" tooltips="1" connect="1" arrows="1" fold="1" page="1" pageScale="1" pageWidth="827" pageHeight="1169" math="0" shadow="0">
      <root>
        <mxCell id="0" />
        <mxCell id="1" parent="0" />
        <object label="111917874443" account="111917874443" id="111917874443">
          <mxCell style="points=[[0,0],[0.25,0],[0.5,0],[0.75,0],[1,0],[1,0.25],[1,0.5],[1,0.75],[1,1],[0.75,1],[0.5,1],[0.25,1],[0,1],[0,0.75],[0,0.5],[0,0.25]];outlineConnect=0;gradientColor=none;html=1;whiteSpace=wrap;fontSize=11;fontStyle=0;fontFamily=Tahoma;shape=mxgraph.aws4.group;grIcon=mxgraph.aws4.group_aws_cloud_alt;strokeColor=#232F3E;fillColor=none;verticalAlign=top;align=left;spacingLeft=30;fontColor=#232F3E;dashed=0;" parent="1" vertex="1">
            <mxGeometry x="-630" y="-410" width="1040.5" height="677.96" as="geometry" />
          </mxCell>
        </object>
        <object label="ap-northeast-1" region="ap-northeast-1" id="ap-northeast-1-111917874443">
          <mxCell style="points=[[0,0],[0.25,0],[0.5,0],[0.75,0],[1,0],[1,0.25],[1,0.5],[1,0.75],[1,1],[0.75,1],[0.5,1],[0.25,1],[0,1],[0,0.75],[0,0.5],[0,0.25]];outlineConnect=0;gradientColor=none;html=1;whiteSpace=wrap;fontSize=11;fontStyle=0;fontFamily=Tahoma;shape=mxgraph.aws4.group;grIcon=mxgraph.aws4.group_region;strokeColor=#147EBA;fillColor=none;verticalAlign=top;align=left;spacingLeft=30;fontColor=#147EBA;dashed=0;" parent="1" vertex="1">
            <mxGeometry x="-590" y="-360" width="727.5" height="589.46" as="geometry" />
          </mxCell>
        </object>
        <object label="global" region="global" id="global-111917874443">
          <mxCell style="points=[[0,0],[0.25,0],[0.5,0],[0.75,0],[1,0],[1,0.25],[1,0.5],[1,0.75],[1,1],[0.75,1],[0.5,1],[0.25,1],[0,1],[0,0.75],[0,0.5],[0,0.25]];outlineConnect=0;gradientColor=none;html=1;whiteSpace=wrap;fontSize=11;fontStyle=0;fontFamily=Tahoma;shape=mxgraph.aws4.group;grIcon=mxgraph.aws4.group_region;strokeColor=#147EBA;fillColor=none;verticalAlign=top;align=left;spacingLeft=30;fontColor=#147EBA;dashed=0;" parent="1" vertex="1">
            <mxGeometry x="144.5" y="-285" width="236" height="293" as="geometry" />
          </mxCell>
        </object>
        <object label="vpc-035aac7f6efd7515b" vpc="vpc-035aac7f6efd7515b" id="vpc-035aac7f6efd7515b-ap-northeast-1-111917874443">
          <mxCell style="points=[[0,0],[0.25,0],[0.5,0],[0.75,0],[1,0],[1,0.25],[1,0.5],[1,0.75],[1,1],[0.75,1],[0.5,1],[0.25,1],[0,1],[0,0.75],[0,0.5],[0,0.25]];outlineConnect=0;gradientColor=none;html=1;whiteSpace=wrap;fontSize=11;fontStyle=0;fontFamily=Tahoma;shape=mxgraph.aws4.group;grIcon=mxgraph.aws4.group_vpc;strokeColor=#248814;fillColor=none;verticalAlign=top;align=left;spacingLeft=30;fontColor=#AAB7B8;dashed=0;" parent="1" vertex="1">
            <mxGeometry x="-540.0022389338288" y="-274.99709278729966" width="223" height="223" as="geometry" />
          </mxCell>
        </object>
        <object label="Service" type="Service" id="Service-ap-northeast-1-111917874443">
          <mxCell style="fillColor=none;strokeColor=#5A6C86;dashed=1;verticalAlign=top;fontSize=11;fontStyle=0;fontColor=#5A6C86;fontFamily=Tahoma;" parent="1" vertex="1">
            <mxGeometry x="1.9999999999999574" y="79.99909052677371" width="103" height="103" as="geometry" />
          </mxCell>
        </object>
        <object label="vpc-0eec2b8f3084634d1" vpc="vpc-0eec2b8f3084634d1" id="vpc-0eec2b8f3084634d1-ap-northeast-1-111917874443">
          <mxCell style="points=[[0,0],[0.25,0],[0.5,0],[0.75,0],[1,0],[1,0.25],[1,0.5],[1,0.75],[1,1],[0.75,1],[0.5,1],[0.25,1],[0,1],[0,0.75],[0,0.5],[0,0.25]];outlineConnect=0;gradientColor=none;html=1;whiteSpace=wrap;fontSize=11;fontStyle=0;fontFamily=Tahoma;shape=mxgraph.aws4.group;grIcon=mxgraph.aws4.group_vpc;strokeColor=#248814;fillColor=none;verticalAlign=top;align=left;spacingLeft=30;fontColor=#AAB7B8;dashed=0;" parent="1" vertex="1">
            <mxGeometry x="-160.00000000000006" y="-275.0009094732263" width="223" height="223" as="geometry" />
          </mxCell>
        </object>
        <object label="Cluster" type="Cluster" id="Cluster-ap-northeast-1-111917874443">
          <mxCell style="fillColor=none;strokeColor=#5A6C86;dashed=1;verticalAlign=top;fontSize=11;fontStyle=0;fontColor=#5A6C86;fontFamily=Tahoma;" parent="1" vertex="1">
            <mxGeometry x="-370.0000000000001" y="79.99909052677371" width="176" height="103" as="geometry" />
          </mxCell>
        </object>
        <object label="Repository" type="Repository" id="Repository-ap-northeast-1-111917874443">
          <mxCell style="fillColor=none;strokeColor=#5A6C86;dashed=1;verticalAlign=top;fontSize=11;fontStyle=0;fontColor=#5A6C86;fontFamily=Tahoma;" parent="1" vertex="1">
            <mxGeometry x="-184.00000000000006" y="79.99909052677371" width="176" height="103" as="geometry" />
          </mxCell>
        </object>
        <object label="Role" type="Role" id="Role-global-111917874443">
          <mxCell style="fillColor=none;strokeColor=#5A6C86;dashed=1;verticalAlign=top;fontSize=11;fontStyle=0;fontColor=#5A6C86;fontFamily=Tahoma;" parent="1" vertex="1">
            <mxGeometry x="174.5" y="-255" width="176" height="103" as="geometry" />
          </mxCell>
        </object>
        <object label="Tag" type="Tag" id="Tag-global-111917874443">
          <mxCell style="fillColor=none;strokeColor=#5A6C86;dashed=1;verticalAlign=top;fontSize=11;fontStyle=0;fontColor=#5A6C86;fontFamily=Tahoma;" parent="1" vertex="1">
            <mxGeometry x="174.5" y="-125" width="176" height="103" as="geometry" />
          </mxCell>
        </object>
        <object label="TaskDefinition" type="TaskDefinition" id="TaskDefinition-ap-northeast-1-111917874443">
          <mxCell style="fillColor=none;strokeColor=#5A6C86;dashed=1;verticalAlign=top;fontSize=11;fontStyle=0;fontColor=#5A6C86;fontFamily=Tahoma;" parent="1" vertex="1">
            <mxGeometry x="-520.0000000000001" y="79.9990905267737" width="103" height="103" as="geometry" />
          </mxCell>
        </object>
        <object label="Multiple Availability Zones" availabilityZone="Multiple Availability Zones" id="Multiple Availability Zones-vpc-035aac7f6efd7515b-ap-northeast-1-111917874443">
          <mxCell style="fillColor=none;strokeColor=#147EBA;dashed=1;verticalAlign=top;fontSize=11;fontStyle=0;fontColor=#147EBA;fontFamily=Tahoma;" parent="1" vertex="1">
            <mxGeometry x="-510.00223893382883" y="-244.99709278729966" width="163" height="163" as="geometry" />
          </mxCell>
        </object>
        <object label="chatbot-ui-d..." Amazon-Elastic-Container-Service_Service_light-bg-menu="chatbot-ui-dev-ECSService" id="arn:aws:ecs:ap-northeast-1:111917874443:service/chatbot-ui-dev-Cluster/chatbot-ui-dev-ECSService">
          <mxCell style="shape=image;verticalLabelPosition=bottom;verticalAlign=top;fontSize=11;fontFamily=Tahoma;aspect=fixed;imageAspect=0;image=data:image/svg+xml,PHN2ZyBpZD0iTGF5ZXJfMSIgZGF0YS1uYW1lPSJMYXllciAxIiAKICAgIHhtbG5zPSJodHRwOi8vd3d3LnczLm9yZy8yMDAwL3N2ZyIgd2lkdGg9Ijc1IiBoZWlnaHQ9Ijc1IiB2aWV3Qm94PSIwIDAgNzUgNzUiPgogICAgPHRpdGxlPkFtYXpvbi1FbGFzdGljLUNvbnRhaW5lci1TZXJ2aWNlX1NlcnZpY2VfbGlnaHQtYmc8L3RpdGxlPgogICAgPGcgaWQ9IkFydCIgdHJhbnNmb3JtPSJzY2FsZSgxLjUpIj4KICAgICAgICA8cGF0aCBkPSJNNDMuMTUsNDguNWgtMjdhMSwxLDAsMCwxLTEtMXYtMzZhMSwxLDAsMCwxLDEtMWgyN2ExLDEsMCwwLDEsMSwxdjM2QTEsMSwwLDAsMSw0My4xNSw0OC41Wm0tMjYtMmgyNXYtMzRoLTI1WiIgc3R5bGU9ImZpbGw6I2Q4NjYxMyIvPgogICAgICAgIDxwYXRoIGQ9Ik0yNC4zOSwyMS41aC00LjVhMSwxLDAsMCwxLTEtMVYxNmExLDEsMCwwLDEsMS0xaDQuNWExLDEsMCwwLDEsMSwxdjQuNUExLDEsMCwwLDEsMjQuMzksMjEuNVptLTMuNS0yaDIuNVYxN2gtMi41WiIgc3R5bGU9ImZpbGw6I2Q4NjYxMyIvPgogICAgICAgIDxwYXRoIGQ9Ik0yNC4zOSwzMmgtNC41YTEsMSwwLDAsMS0xLTFWMjYuNWExLDEsMCwwLDEsMS0xaDQuNWExLDEsMCwwLDEsMSwxVjMxQTEsMSwwLDAsMSwyNC4zOSwzMlptLTMuNS0yaDIuNVYyNy41aC0yLjVaIiBzdHlsZT0iZmlsbDojZDg2NjEzIi8+CiAgICAgICAgPHBhdGggZD0iTTI0LjM5LDQyLjUxaC00LjVhMSwxLDAsMCwxLTEtMVYzN2ExLDEsMCwwLDEsMS0xaDQuNWExLDEsMCwwLDEsMSwxdjQuNTFBMSwxLDAsMCwxLDI0LjM5LDQyLjUxWm0tMy41LTJoMi41VjM4aC0yLjVaIiBzdHlsZT0iZmlsbDojZDg2NjEzIi8+CiAgICAgICAgPHJlY3QgeD0iMjYuNjUiIHk9IjE3LjI1IiB3aWR0aD0iMTMuNTEiIGhlaWdodD0iMiIgc3R5bGU9ImZpbGw6I2Q4NjYxMyIvPgogICAgICAgIDxyZWN0IHg9IjI2LjY1IiB5PSIyNy43NCIgd2lkdGg9IjEzLjUxIiBoZWlnaHQ9IjIiIHN0eWxlPSJmaWxsOiNkODY2MTMiLz4KICAgICAgICA8cmVjdCB4PSIyNi42NSIgeT0iMzguMjUiIHdpZHRoPSIxMy41MSIgaGVpZ2h0PSIyIiBzdHlsZT0iZmlsbDojZDg2NjEzIi8+CiAgICAgICAgPHBhdGggZD0iTTE2LjE1LDQ0aC00LjVhMSwxLDAsMCwxLTEtMVY3YTEsMSwwLDAsMSwxLTFoMjdhMSwxLDAsMCwxLDEsMXY0LjVoLTJWOGgtMjVWNDJoMy41WiIgc3R5bGU9ImZpbGw6I2Q4NjYxMyIvPgogICAgICAgIDxwYXRoIGQ9Ik0xMS4zNSwzOS41MUg2Ljg1YTEsMSwwLDAsMS0xLTFWMi41YTEsMSwwLDAsMSwxLTFoMjdhMSwxLDAsMCwxLDEsMVY3aC0yVjMuNWgtMjV2MzRoMy41WiIgc3R5bGU9ImZpbGw6I2Q4NjYxMyIvPgogICAgPC9nPgo8L3N2Zz4=" parent="1" vertex="1">
            <mxGeometry x="31.999999999999957" y="109.99909052677371" width="43" height="43" as="geometry" />
          </mxCell>
        </object>
        <object label="Multiple Availability Zones" availabilityZone="Multiple Availability Zones" id="Multiple Availability Zones-vpc-0eec2b8f3084634d1-ap-northeast-1-111917874443">
          <mxCell style="fillColor=none;strokeColor=#147EBA;dashed=1;verticalAlign=top;fontSize=11;fontStyle=0;fontColor=#147EBA;fontFamily=Tahoma;" parent="1" vertex="1">
            <mxGeometry x="-130.00000000000006" y="-245.0009094732263" width="163" height="163" as="geometry" />
          </mxCell>
        </object>
        <object label="chatbot-ui-p..." Amazon-Elastic-Container-Service-menu="chatbot-ui-prod-Cluster" id="arn:aws:ecs:ap-northeast-1:111917874443:cluster/chatbot-ui-prod-Cluster">
          <mxCell style="shape=image;verticalLabelPosition=bottom;verticalAlign=top;fontSize=11;fontFamily=Tahoma;aspect=fixed;imageAspect=0;image=data:image/svg+xml,PHN2ZyBpZD0iUHJvZHVjdF9JY29uIiBkYXRhLW5hbWU9IlByb2R1Y3QgSWNvbiIgCiAgICB4bWxucz0iaHR0cDovL3d3dy53My5vcmcvMjAwMC9zdmciIAogICAgeG1sbnM6eGxpbms9Imh0dHA6Ly93d3cudzMub3JnLzE5OTkveGxpbmsiIHdpZHRoPSI3NSIgaGVpZ2h0PSI3NSIgdmlld0JveD0iMCAwIDc1IDc1Ij4KCiAgICA8dGl0bGU+QW1hem9uLUVsYXN0aWMtQ29udGFpbmVyLVNlcnZpY2U8L3RpdGxlPgogICAgPHJlY3QgaWQ9Ik9yYW5nZV9HcmFkaWVudCIgZGF0YS1uYW1lPSJPcmFuZ2UgR3JhZGllbnQiIHdpZHRoPSI3NSIgaGVpZ2h0PSI3NSIgc3R5bGU9ImZpbGw6dHJhbnNwYXJlbnQiLz4KICAgIDxnIGlkPSJJY29uX1Rlc3QiIGRhdGEtbmFtZT0iSWNvbiBUZXN0Ij4KICAgICAgICA8cGF0aCBkPSJNMzcuMjksNjQuNDRhMSwxLDAsMCwxLS41My0uMTRMMTQsNTEuMThhMS4wNiwxLjA2LDAsMCwxLS41My0uOTJWMjMuNjhhMS4wNiwxLjA2LDAsMCwxLC41My0uOTJMMzQuOTMsMTAuN2ExLDEsMCwwLDEsMS41Ny45VjIzLjExQTEuMDUsMS4wNSwwLDAsMSwzNiwyNGwtMTAuNDcsNlY0My45NGwxMS43OSw2LjgxLDEwLjMxLTZhMSwxLDAsMCwxLDEsMGw5LjkyLDUuN2ExLjA2LDEuMDYsMCwwLDEsLjUzLjkyLDEsMSwwLDAsMS0uNTMuOTFsLTIwLjc1LDEyQTEsMSwwLDAsMSwzNy4yOSw2NC40NFpNMTUuNSw0OS41NCwzNy44Myw2Mi40Myw1Nyw1MS4zNWwtOC00LjYxTDM4LjM3LDUyLjg4YTEuMTEsMS4xMSwwLDAsMS0xLjA5LDBMMjQsNDUuMjJhMS4wNSwxLjA1LDAsMCwxLS41My0uOTFWMjkuNDZhMSwxLDAsMCwxLC41My0uOTFsMTAuNDctNlYxMy4zN2wtMTksMTFaIiBzdHlsZT0iZmlsbDojYzg1MTFiIi8+CiAgICAgICAgPHBhdGggZD0iTTYwLjQ0LDQ5YTEuMTMsMS4xMywwLDAsMS0uNTMtLjE0TDUwLDQzLjEzYTEsMSwwLDAsMS0uNTMtLjkxVjMwLjExTDM5LDI0LjA3YTEuMDUsMS4wNSwwLDAsMS0uNTMtLjkxVjExLjY1YTEsMSwwLDAsMSwuNTItLjksMSwxLDAsMCwxLDEsMEw2MSwyMi44MmExLjA1LDEuMDUsMCwwLDEsLjUzLjkxVjQ3LjlhMS4wNiwxLjA2LDAsMCwxLS41My45MkExLjEsMS4xLDAsMCwxLDYwLjQ0LDQ5Wk01MS41LDQxLjU1bDgsNC42VjI0LjRsLTE5LTExdjkuMTNMNTEsMjguNjFhMSwxLDAsMCwxLC41My45MVoiIHN0eWxlPSJmaWxsOiNjODUxMWIiLz4KICAgIDwvZz4KPC9zdmc+" parent="1" vertex="1">
            <mxGeometry x="-340.0000000000001" y="109.99909052677371" width="43" height="43" as="geometry" />
          </mxCell>
        </object>
        <object label="chatbot-ui-d..." Amazon-Elastic-Container-Service-menu="chatbot-ui-dev-Cluster" id="arn:aws:ecs:ap-northeast-1:111917874443:cluster/chatbot-ui-dev-Cluster">
          <mxCell style="shape=image;verticalLabelPosition=bottom;verticalAlign=top;fontSize=11;fontFamily=Tahoma;aspect=fixed;imageAspect=0;image=data:image/svg+xml,PHN2ZyBpZD0iUHJvZHVjdF9JY29uIiBkYXRhLW5hbWU9IlByb2R1Y3QgSWNvbiIgCiAgICB4bWxucz0iaHR0cDovL3d3dy53My5vcmcvMjAwMC9zdmciIAogICAgeG1sbnM6eGxpbms9Imh0dHA6Ly93d3cudzMub3JnLzE5OTkveGxpbmsiIHdpZHRoPSI3NSIgaGVpZ2h0PSI3NSIgdmlld0JveD0iMCAwIDc1IDc1Ij4KCiAgICA8dGl0bGU+QW1hem9uLUVsYXN0aWMtQ29udGFpbmVyLVNlcnZpY2U8L3RpdGxlPgogICAgPHJlY3QgaWQ9Ik9yYW5nZV9HcmFkaWVudCIgZGF0YS1uYW1lPSJPcmFuZ2UgR3JhZGllbnQiIHdpZHRoPSI3NSIgaGVpZ2h0PSI3NSIgc3R5bGU9ImZpbGw6dHJhbnNwYXJlbnQiLz4KICAgIDxnIGlkPSJJY29uX1Rlc3QiIGRhdGEtbmFtZT0iSWNvbiBUZXN0Ij4KICAgICAgICA8cGF0aCBkPSJNMzcuMjksNjQuNDRhMSwxLDAsMCwxLS41My0uMTRMMTQsNTEuMThhMS4wNiwxLjA2LDAsMCwxLS41My0uOTJWMjMuNjhhMS4wNiwxLjA2LDAsMCwxLC41My0uOTJMMzQuOTMsMTAuN2ExLDEsMCwwLDEsMS41Ny45VjIzLjExQTEuMDUsMS4wNSwwLDAsMSwzNiwyNGwtMTAuNDcsNlY0My45NGwxMS43OSw2LjgxLDEwLjMxLTZhMSwxLDAsMCwxLDEsMGw5LjkyLDUuN2ExLjA2LDEuMDYsMCwwLDEsLjUzLjkyLDEsMSwwLDAsMS0uNTMuOTFsLTIwLjc1LDEyQTEsMSwwLDAsMSwzNy4yOSw2NC40NFpNMTUuNSw0OS41NCwzNy44Myw2Mi40Myw1Nyw1MS4zNWwtOC00LjYxTDM4LjM3LDUyLjg4YTEuMTEsMS4xMSwwLDAsMS0xLjA5LDBMMjQsNDUuMjJhMS4wNSwxLjA1LDAsMCwxLS41My0uOTFWMjkuNDZhMSwxLDAsMCwxLC41My0uOTFsMTAuNDctNlYxMy4zN2wtMTksMTFaIiBzdHlsZT0iZmlsbDojYzg1MTFiIi8+CiAgICAgICAgPHBhdGggZD0iTTYwLjQ0LDQ5YTEuMTMsMS4xMywwLDAsMS0uNTMtLjE0TDUwLDQzLjEzYTEsMSwwLDAsMS0uNTMtLjkxVjMwLjExTDM5LDI0LjA3YTEuMDUsMS4wNSwwLDAsMS0uNTMtLjkxVjExLjY1YTEsMSwwLDAsMSwuNTItLjksMSwxLDAsMCwxLDEsMEw2MSwyMi44MmExLjA1LDEuMDUsMCwwLDEsLjUzLjkxVjQ3LjlhMS4wNiwxLjA2LDAsMCwxLS41My45MkExLjEsMS4xLDAsMCwxLDYwLjQ0LDQ5Wk01MS41LDQxLjU1bDgsNC42VjI0LjRsLTE5LTExdjkuMTNMNTEsMjguNjFhMSwxLDAsMCwxLC41My45MVoiIHN0eWxlPSJmaWxsOiNjODUxMWIiLz4KICAgIDwvZz4KPC9zdmc+" parent="1" vertex="1">
            <mxGeometry x="-267.0000000000001" y="109.99909052677371" width="43" height="43" as="geometry" />
          </mxCell>
        </object>
        <object label="chatbot-ui-p..." Amazon-EC2-Container-Registry="chatbot-ui-prod-ecr" id="arn:aws:ecr:ap-northeast-1:111917874443:repository/chatbot-ui-prod-ecr">
          <mxCell style="shape=image;verticalLabelPosition=bottom;verticalAlign=top;fontSize=11;fontFamily=Tahoma;aspect=fixed;imageAspect=0;image=data:image/svg+xml,PHN2ZyB4bWxucz0iaHR0cDovL3d3dy53My5vcmcvMjAwMC9zdmciIHhtbG5zOnhsaW5rPSJodHRwOi8vd3d3LnczLm9yZy8xOTk5L3hsaW5rIiB3aWR0aD0iNzUiIGhlaWdodD0iNzUiIHZpZXdCb3g9IjAgMCA3NSA3NSI+CiAgICA8ZGVmcz4KICAgICAgICA8c3R5bGU+CiAgICAgICAgICAgIC5jbHMtMSB7CiAgICAgICAgICAgICAgICBmaWxsOiAjZmZmOwogICAgICAgICAgICB9CgogICAgICAgICAgICAuY2xzLTIgewogICAgICAgICAgICAgICAgZmlsbDogI2M4NTExYjsKICAgICAgICAgICAgfQogICAgICAgIDwvc3R5bGU+CiAgICAgICAgCiAgICA8L2RlZnM+CiAgICA8dGl0bGU+QW1hem9uLUVDMi1Db250YWluZXItUmVnaXN0cnk8L3RpdGxlPgogICAgPGcgaWQ9IlJlZmVyZW5jZSI+CiAgICAgICAgPHJlY3QgaWQ9Ik9yYW5nZV9HcmFkaWVudCIgZGF0YS1uYW1lPSJPcmFuZ2UgR3JhZGllbnQiIGNsYXNzPSJjbHMtMSIgd2lkdGg9Ijc1IiBoZWlnaHQ9Ijc1IiAvPgogICAgICAgIDxnIGlkPSJJY29uX1Rlc3QiIGRhdGEtbmFtZT0iSWNvbiBUZXN0Ij4KICAgICAgICAgICAgPHBhdGggY2xhc3M9ImNscy0yIgogICAgICAgICAgICAgICAgZD0iTTU5LjUsMzAuMDZWNTAuNTFsLTE4LDEwLjRWNTMuMTVsMTAtNS43N2EyLDIsMCwwLDAsMS0xLjQ2LDUsNSwwLDAsMCwwLS43OFYzMy43Nmw3LTRtMS40MS0zYS41OS41OSwwLDAsMC0uMjkuMDdsLTkuNTUsNS41MmMtLjE4LjEtLjU3LjI4LS41Ny41MVY0NS4xNGE0LDQsMCwwLDEsMCwuNTFsLTEwLjcsNi4xN2EuNi42LDAsMCwwLS4yOS41MXYxMWEuNTkuNTksMCwwLDAsLjU5LjU5LjYuNiwwLDAsMCwuMjktLjA4bDIwLjgzLTEyYS42LjYsMCwwLDAsLjI5LS41MVYyNy4yN2EuNTguNTgsMCwwLDAtLjU5LS41OFoiIC8+CiAgICAgICAgICAgIDxwYXRoIGNsYXNzPSJjbHMtMiIKICAgICAgICAgICAgICAgIGQ9Ik0zNS45Miw2NC45NGExLjU4LDEuNTgsMCwwLDEtLjc5LS4yMWwtMjAuODQtMTJhMS41OCwxLjU4LDAsMCwxLS43OS0xLjM3VjI0Ljg3YTEuNTgsMS41OCwwLDAsMSwuNzktMS4zN0wzNy4yMSwxMC4yN2ExLjU2LDEuNTYsMCwwLDEsMS41OSwwbDIwLjgzLDEyYTEuNTksMS41OSwwLDAsMSwuNzksMS4zNywxLjYxLDEuNjEsMCwwLDEtLjc5LDEuMzhMMzcuNSwzNy44MlY2My4zNmExLjU2LDEuNTYsMCwwLDEtLjc5LDEuMzdBMS41OCwxLjU4LDAsMCwxLDM1LjkyLDY0Ljk0Wk0xNS41LDUxLjA5bDIwLDExLjU0VjM3LjU4YTEuNiwxLjYsMCwwLDEsLjc5LTEuMzhMNTgsMjMuNjgsMzgsMTIuMTNsLTIyLjQ5LDEzWk0zNy43OSwxMmgwWm0uNDIsMFoiIC8+CiAgICAgICAgPC9nPgogICAgPC9nPgo8L3N2Zz4=" parent="1" vertex="1">
            <mxGeometry x="-154.00000000000006" y="109.99909052677371" width="43" height="43" as="geometry" />
          </mxCell>
        </object>
        <object label="chatbot-ui-d..." Amazon-EC2-Container-Registry="chatbot-ui-dev-ecr" id="arn:aws:ecr:ap-northeast-1:111917874443:repository/chatbot-ui-dev-ecr">
          <mxCell style="shape=image;verticalLabelPosition=bottom;verticalAlign=top;fontSize=11;fontFamily=Tahoma;aspect=fixed;imageAspect=0;image=data:image/svg+xml,PHN2ZyB4bWxucz0iaHR0cDovL3d3dy53My5vcmcvMjAwMC9zdmciIHhtbG5zOnhsaW5rPSJodHRwOi8vd3d3LnczLm9yZy8xOTk5L3hsaW5rIiB3aWR0aD0iNzUiIGhlaWdodD0iNzUiIHZpZXdCb3g9IjAgMCA3NSA3NSI+CiAgICA8ZGVmcz4KICAgICAgICA8c3R5bGU+CiAgICAgICAgICAgIC5jbHMtMSB7CiAgICAgICAgICAgICAgICBmaWxsOiAjZmZmOwogICAgICAgICAgICB9CgogICAgICAgICAgICAuY2xzLTIgewogICAgICAgICAgICAgICAgZmlsbDogI2M4NTExYjsKICAgICAgICAgICAgfQogICAgICAgIDwvc3R5bGU+CiAgICAgICAgCiAgICA8L2RlZnM+CiAgICA8dGl0bGU+QW1hem9uLUVDMi1Db250YWluZXItUmVnaXN0cnk8L3RpdGxlPgogICAgPGcgaWQ9IlJlZmVyZW5jZSI+CiAgICAgICAgPHJlY3QgaWQ9Ik9yYW5nZV9HcmFkaWVudCIgZGF0YS1uYW1lPSJPcmFuZ2UgR3JhZGllbnQiIGNsYXNzPSJjbHMtMSIgd2lkdGg9Ijc1IiBoZWlnaHQ9Ijc1IiAvPgogICAgICAgIDxnIGlkPSJJY29uX1Rlc3QiIGRhdGEtbmFtZT0iSWNvbiBUZXN0Ij4KICAgICAgICAgICAgPHBhdGggY2xhc3M9ImNscy0yIgogICAgICAgICAgICAgICAgZD0iTTU5LjUsMzAuMDZWNTAuNTFsLTE4LDEwLjRWNTMuMTVsMTAtNS43N2EyLDIsMCwwLDAsMS0xLjQ2LDUsNSwwLDAsMCwwLS43OFYzMy43Nmw3LTRtMS40MS0zYS41OS41OSwwLDAsMC0uMjkuMDdsLTkuNTUsNS41MmMtLjE4LjEtLjU3LjI4LS41Ny41MVY0NS4xNGE0LDQsMCwwLDEsMCwuNTFsLTEwLjcsNi4xN2EuNi42LDAsMCwwLS4yOS41MXYxMWEuNTkuNTksMCwwLDAsLjU5LjU5LjYuNiwwLDAsMCwuMjktLjA4bDIwLjgzLTEyYS42LjYsMCwwLDAsLjI5LS41MVYyNy4yN2EuNTguNTgsMCwwLDAtLjU5LS41OFoiIC8+CiAgICAgICAgICAgIDxwYXRoIGNsYXNzPSJjbHMtMiIKICAgICAgICAgICAgICAgIGQ9Ik0zNS45Miw2NC45NGExLjU4LDEuNTgsMCwwLDEtLjc5LS4yMWwtMjAuODQtMTJhMS41OCwxLjU4LDAsMCwxLS43OS0xLjM3VjI0Ljg3YTEuNTgsMS41OCwwLDAsMSwuNzktMS4zN0wzNy4yMSwxMC4yN2ExLjU2LDEuNTYsMCwwLDEsMS41OSwwbDIwLjgzLDEyYTEuNTksMS41OSwwLDAsMSwuNzksMS4zNywxLjYxLDEuNjEsMCwwLDEtLjc5LDEuMzhMMzcuNSwzNy44MlY2My4zNmExLjU2LDEuNTYsMCwwLDEtLjc5LDEuMzdBMS41OCwxLjU4LDAsMCwxLDM1LjkyLDY0Ljk0Wk0xNS41LDUxLjA5bDIwLDExLjU0VjM3LjU4YTEuNiwxLjYsMCwwLDEsLjc5LTEuMzhMNTgsMjMuNjgsMzgsMTIuMTNsLTIyLjQ5LDEzWk0zNy43OSwxMmgwWm0uNDIsMFoiIC8+CiAgICAgICAgPC9nPgogICAgPC9nPgo8L3N2Zz4=" parent="1" vertex="1">
            <mxGeometry x="-81.00000000000006" y="109.99909052677371" width="43" height="43" as="geometry" />
          </mxCell>
        </object>
        <object label="chatbot-ui-d..." AWS-Identity-and-Access-Management-IAM_Role_light-bg="chatbot-ui-dev-ECSRole" id="arn:aws:iam::111917874443:role/chatbot-ui-dev-ECSRole">
          <mxCell style="shape=image;verticalLabelPosition=bottom;verticalAlign=top;fontSize=11;fontFamily=Tahoma;aspect=fixed;imageAspect=0;image=data:image/svg+xml,PHN2ZyB4bWxucz0iaHR0cDovL3d3dy53My5vcmcvMjAwMC9zdmciIHdpZHRoPSI3NSIgaGVpZ2h0PSI3NSIgdmlld0JveD0iMCAwIDc1IDc1Ij4KICAgIDx0aXRsZT5BV1MtSWRlbnRpdHktYW5kLUFjY2Vzcy1NYW5hZ2VtZW50LUlBTV9Sb2xlX2xpZ2h0LWJnPC90aXRsZT4KICAgIDxnIGlkPSJXb3JraW5nIiB0cmFuc2Zvcm09InNjYWxlKDEuNSkiPgogICAgICAgIDxwYXRoIHN0eWxlPSJmaWxsOiNkNjI0MmQiIGQ9Ik03Ljk0LDMxLjYyYzAtLjI4LDAtLjU1LDAtLjgzYTE5LjgsMTkuOCwwLDAsMSwzOS41NS0xLjM1bC0yLC4xM0ExNy44LDE3LjgsMCwwLDAsOS45MiwzMC43OWMwLC4yNSwwLC41LDAsLjc1WiIvPgogICAgICAgIDxwYXRoIHN0eWxlPSJmaWxsOiNkNjI0MmQiIGQ9Ik04LjczLDMyLjIyYzAtLjM0LDAtMS4xMSwwLTEuMzFhMTYuNDksMTYuNDksMCwwLDEsNi41NS0xMy4wN2wuMS0uMDdhMTguMzQsMTguMzQsMCwwLDEsOS4zLTIuNTFBMTcuNjEsMTcuNjEsMCwwLDEsNDEuNzMsMjcuNjlsLTEuOTIuNTRhMTUuNiwxNS42LDAsMCwwLTE1LjE2LTExLDE2LjMzLDE2LjMzLDAsMCwwLTguMjMsMi4yQTE0LjQ4LDE0LjQ4LDAsMCwwLDEwLjcsMzAuOTFjMCwuMiwwLC45NCwwLDEuMjZaIi8+CiAgICAgICAgPHBhdGggc3R5bGU9ImZpbGw6I2Q2MjQyZCIgZD0iTTEwLjA1LDM3LjgzbC0uMjctMmExMS42NSwxMS42NSwwLDAsMCw1LTEuNjdjMy4zMS0yLjQsMTAuMzEtMy4yNiwxNC4wOS0zYTIzLjgxLDIzLjgxLDAsMCwxLDcuMDYsMi4yMkExNy41OSwxNy41OSwwLDAsMCwzOSwzNC41NywyOSwyOSwwLDAsMCw0NCwzNC4yOWwuMTcsMGMuNTktLjA2LDEuMTctLjEyLDEuNzMtLjE2bC41NiwwVjMwLjUybC0uMjEsMC0xLjguMTctMS4zNi4xMi0uMTUtMiwxLjM0LS4xMSwxLjc3LS4xNy40Ni0uMDVhMS43MywxLjczLDAsMCwxLDIsMS43MnY0LjA5QTEuNzQsMS43NCwwLDAsMSw0Ni44OCwzNmgtLjE0bC0uNjIuMDUtMS43LjE2LS4xOCwwYTI4LjU3LDI4LjU3LDAsMCwxLTUuNTQuMjcsMTYuNTQsMTYuNTQsMCwwLDEtMy41OC0xLjI5QTIyLjI1LDIyLjI1LDAsMCwwLDI4LjcsMzMuMmMtMy40LS4yNi05Ljg5LjUxLTEyLjc2LDIuNkExMy42MSwxMy42MSwwLDAsMSwxMC4wNSwzNy44M1pNNDYuNzQsMzRaIi8+CiAgICAgICAgPHBhdGggc3R5bGU9ImZpbGw6I2Q2MjQyZCIgZD0iTTM3LjM3LDMwLjc4Yy0uNTctLjE3LTEuMi0uNDEtMS45My0uNjlhMTguNSwxOC41LDAsMCwwLTcuNzMtMS42NWMtNC44Ni4yOS03LjIyLjU3LTksMS4wOGwtLjU2LTEuOTJjMi0uNTYsNC40Mi0uODYsOS40NS0xLjE1YTIwLjI0LDIwLjI0LDAsMCwxLDguNTYsMS43N2MuNjguMjcsMS4yOC40OSwxLjc2LjYzWiIvPgogICAgICAgIDxwYXRoIHN0eWxlPSJmaWxsOiNkNjI0MmQiIGQ9Ik03LjQsMzhjLTIuMTQsMC00LjI1LS4zOS01LjM0LTEuNDhBMS43LDEuNywwLDAsMSwxLjUzLDM1Yy4yNC0xLjI3LDEuODctMiw0LjE0LTMsMS0uNDEsMS45My0uODQsMi43OS0xLjMxbDEsMS43NWMtLjk0LjUyLTIsMS0yLjk1LDEuNGExOC45NCwxOC45NCwwLDAsMC0yLjgyLDEuNGMuOS42MywzLjE2LDEsNi4xMy41OWwuMjcsMkEyMC42OCwyMC42OCwwLDAsMSw3LjQsMzhaIi8+CiAgICAgICAgPHBhdGggc3R5bGU9ImZpbGw6I2Q2MjQyZCIgZD0iTTQyLjM1LDMyLjU2aC00YTEuNzEsMS43MSwwLDAsMS0xLjctMS43MVYyOC42NmExLjcsMS43LDAsMCwxLDEuNy0xLjdoNGExLjcsMS43LDAsMCwxLDEuNywxLjd2Mi4xOUExLjcxLDEuNzEsMCwwLDEsNDIuMzUsMzIuNTZabS0zLjctMmgzLjRWMjloLTMuNFoiLz4KICAgICAgICA8cGF0aCBzdHlsZT0iZmlsbDojZDYyNDJkIiBkPSJNMTYuNDksMzUuMjhhMTMsMTMsMCwwLDEtOC4yMi0zTDkuNiwzMC44M2ExMSwxMSwwLDAsMCw3LDIuNDVaIi8+CiAgICA8L2c+Cjwvc3ZnPg==" parent="1" vertex="1">
            <mxGeometry x="204.5" y="-225" width="43" height="43" as="geometry" />
          </mxCell>
        </object>
        <object label="STAGE=dev" AWS-Tags-bg="STAGE=dev" id="arn:aws:tags::111917874443:tag/STAGE=dev">
          <mxCell style="shape=image;verticalLabelPosition=bottom;verticalAlign=top;fontSize=11;fontFamily=Tahoma;aspect=fixed;imageAspect=0;image=data:image/svg+xml,PHN2ZyB4bWxucz0iaHR0cDovL3d3dy53My5vcmcvMjAwMC9zdmciIHdpZHRoPSI3NSIgaGVpZ2h0PSI3NSIgdmlld0JveD0iMCAwIDc1IDc1IiB0cmFuc2Zvcm09InNjYWxlKDEuNikiPg0KICAgIDx0aXRsZT5leHAtQVdTLVRhZ3MtYmc8L3RpdGxlPiAgIA0KICAgIDwhLS0gPHJlY3Qgd2lkdGg9IjQxLjgiIGhlaWdodD0iNDEuOCIgZmlsbD0iI2ZmZiIvPiAgLS0+DQogICAgPGNpcmNsZSBjeD0iOS44IiBjeT0iOS42IiByPSIyLjUiIGZpbGw9Im5vbmUiIHN0cm9rZT0iI2NkMjI2NCIgc3Ryb2tlLW1pdGVybGltaXQ9IjEwIiBzdHJva2Utd2lkdGg9IjIiIHRyYW5zZm9ybT0idHJhbnNsYXRlKDIwLDIwKSIvPg0KICAgIDxwb2x5Z29uIHBvaW50cz0iMTcuOCAzLjUgMy41IDMuNSAzLjUgMTcuOCAzLjUgMTcuOCAyNCAzOC4zIDM4LjMgMjQgMTcuOCAzLjUiIGZpbGw9Im5vbmUiIHN0cm9rZT0iI2NkMjI2NCIgc3Ryb2tlLWxpbmVjYXA9InJvdW5kIiBzdHJva2UtbGluZWpvaW49InJvdW5kIiBzdHJva2Utd2lkdGg9IjIuMDEiIHRyYW5zZm9ybT0idHJhbnNsYXRlKDIwLDIwKSIvPg0KPC9zdmc+" parent="1" vertex="1">
            <mxGeometry x="204.5" y="-95" width="43" height="43" as="geometry" />
          </mxCell>
        </object>
        <object label="chatbot-ui-p..." AWS-Identity-and-Access-Management-IAM_Role_light-bg="chatbot-ui-prod-ECSRole" id="arn:aws:iam::111917874443:role/chatbot-ui-prod-ECSRole">
          <mxCell style="shape=image;verticalLabelPosition=bottom;verticalAlign=top;fontSize=11;fontFamily=Tahoma;aspect=fixed;imageAspect=0;image=data:image/svg+xml,PHN2ZyB4bWxucz0iaHR0cDovL3d3dy53My5vcmcvMjAwMC9zdmciIHdpZHRoPSI3NSIgaGVpZ2h0PSI3NSIgdmlld0JveD0iMCAwIDc1IDc1Ij4KICAgIDx0aXRsZT5BV1MtSWRlbnRpdHktYW5kLUFjY2Vzcy1NYW5hZ2VtZW50LUlBTV9Sb2xlX2xpZ2h0LWJnPC90aXRsZT4KICAgIDxnIGlkPSJXb3JraW5nIiB0cmFuc2Zvcm09InNjYWxlKDEuNSkiPgogICAgICAgIDxwYXRoIHN0eWxlPSJmaWxsOiNkNjI0MmQiIGQ9Ik03Ljk0LDMxLjYyYzAtLjI4LDAtLjU1LDAtLjgzYTE5LjgsMTkuOCwwLDAsMSwzOS41NS0xLjM1bC0yLC4xM0ExNy44LDE3LjgsMCwwLDAsOS45MiwzMC43OWMwLC4yNSwwLC41LDAsLjc1WiIvPgogICAgICAgIDxwYXRoIHN0eWxlPSJmaWxsOiNkNjI0MmQiIGQ9Ik04LjczLDMyLjIyYzAtLjM0LDAtMS4xMSwwLTEuMzFhMTYuNDksMTYuNDksMCwwLDEsNi41NS0xMy4wN2wuMS0uMDdhMTguMzQsMTguMzQsMCwwLDEsOS4zLTIuNTFBMTcuNjEsMTcuNjEsMCwwLDEsNDEuNzMsMjcuNjlsLTEuOTIuNTRhMTUuNiwxNS42LDAsMCwwLTE1LjE2LTExLDE2LjMzLDE2LjMzLDAsMCwwLTguMjMsMi4yQTE0LjQ4LDE0LjQ4LDAsMCwwLDEwLjcsMzAuOTFjMCwuMiwwLC45NCwwLDEuMjZaIi8+CiAgICAgICAgPHBhdGggc3R5bGU9ImZpbGw6I2Q2MjQyZCIgZD0iTTEwLjA1LDM3LjgzbC0uMjctMmExMS42NSwxMS42NSwwLDAsMCw1LTEuNjdjMy4zMS0yLjQsMTAuMzEtMy4yNiwxNC4wOS0zYTIzLjgxLDIzLjgxLDAsMCwxLDcuMDYsMi4yMkExNy41OSwxNy41OSwwLDAsMCwzOSwzNC41NywyOSwyOSwwLDAsMCw0NCwzNC4yOWwuMTcsMGMuNTktLjA2LDEuMTctLjEyLDEuNzMtLjE2bC41NiwwVjMwLjUybC0uMjEsMC0xLjguMTctMS4zNi4xMi0uMTUtMiwxLjM0LS4xMSwxLjc3LS4xNy40Ni0uMDVhMS43MywxLjczLDAsMCwxLDIsMS43MnY0LjA5QTEuNzQsMS43NCwwLDAsMSw0Ni44OCwzNmgtLjE0bC0uNjIuMDUtMS43LjE2LS4xOCwwYTI4LjU3LDI4LjU3LDAsMCwxLTUuNTQuMjcsMTYuNTQsMTYuNTQsMCwwLDEtMy41OC0xLjI5QTIyLjI1LDIyLjI1LDAsMCwwLDI4LjcsMzMuMmMtMy40LS4yNi05Ljg5LjUxLTEyLjc2LDIuNkExMy42MSwxMy42MSwwLDAsMSwxMC4wNSwzNy44M1pNNDYuNzQsMzRaIi8+CiAgICAgICAgPHBhdGggc3R5bGU9ImZpbGw6I2Q2MjQyZCIgZD0iTTM3LjM3LDMwLjc4Yy0uNTctLjE3LTEuMi0uNDEtMS45My0uNjlhMTguNSwxOC41LDAsMCwwLTcuNzMtMS42NWMtNC44Ni4yOS03LjIyLjU3LTksMS4wOGwtLjU2LTEuOTJjMi0uNTYsNC40Mi0uODYsOS40NS0xLjE1YTIwLjI0LDIwLjI0LDAsMCwxLDguNTYsMS43N2MuNjguMjcsMS4yOC40OSwxLjc2LjYzWiIvPgogICAgICAgIDxwYXRoIHN0eWxlPSJmaWxsOiNkNjI0MmQiIGQ9Ik03LjQsMzhjLTIuMTQsMC00LjI1LS4zOS01LjM0LTEuNDhBMS43LDEuNywwLDAsMSwxLjUzLDM1Yy4yNC0xLjI3LDEuODctMiw0LjE0LTMsMS0uNDEsMS45My0uODQsMi43OS0xLjMxbDEsMS43NWMtLjk0LjUyLTIsMS0yLjk1LDEuNGExOC45NCwxOC45NCwwLDAsMC0yLjgyLDEuNGMuOS42MywzLjE2LDEsNi4xMy41OWwuMjcsMkEyMC42OCwyMC42OCwwLDAsMSw3LjQsMzhaIi8+CiAgICAgICAgPHBhdGggc3R5bGU9ImZpbGw6I2Q2MjQyZCIgZD0iTTQyLjM1LDMyLjU2aC00YTEuNzEsMS43MSwwLDAsMS0xLjctMS43MVYyOC42NmExLjcsMS43LDAsMCwxLDEuNy0xLjdoNGExLjcsMS43LDAsMCwxLDEuNywxLjd2Mi4xOUExLjcxLDEuNzEsMCwwLDEsNDIuMzUsMzIuNTZabS0zLjctMmgzLjRWMjloLTMuNFoiLz4KICAgICAgICA8cGF0aCBzdHlsZT0iZmlsbDojZDYyNDJkIiBkPSJNMTYuNDksMzUuMjhhMTMsMTMsMCwwLDEtOC4yMi0zTDkuNiwzMC44M2ExMSwxMSwwLDAsMCw3LDIuNDVaIi8+CiAgICA8L2c+Cjwvc3ZnPg==" parent="1" vertex="1">
            <mxGeometry x="277.5" y="-225" width="43" height="43" as="geometry" />
          </mxCell>
        </object>
        <object label="STAGE=prod" AWS-Tags-bg="STAGE=prod" id="arn:aws:tags::111917874443:tag/STAGE=prod">
          <mxCell style="shape=image;verticalLabelPosition=bottom;verticalAlign=top;fontSize=11;fontFamily=Tahoma;aspect=fixed;imageAspect=0;image=data:image/svg+xml,PHN2ZyB4bWxucz0iaHR0cDovL3d3dy53My5vcmcvMjAwMC9zdmciIHdpZHRoPSI3NSIgaGVpZ2h0PSI3NSIgdmlld0JveD0iMCAwIDc1IDc1IiB0cmFuc2Zvcm09InNjYWxlKDEuNikiPg0KICAgIDx0aXRsZT5leHAtQVdTLVRhZ3MtYmc8L3RpdGxlPiAgIA0KICAgIDwhLS0gPHJlY3Qgd2lkdGg9IjQxLjgiIGhlaWdodD0iNDEuOCIgZmlsbD0iI2ZmZiIvPiAgLS0+DQogICAgPGNpcmNsZSBjeD0iOS44IiBjeT0iOS42IiByPSIyLjUiIGZpbGw9Im5vbmUiIHN0cm9rZT0iI2NkMjI2NCIgc3Ryb2tlLW1pdGVybGltaXQ9IjEwIiBzdHJva2Utd2lkdGg9IjIiIHRyYW5zZm9ybT0idHJhbnNsYXRlKDIwLDIwKSIvPg0KICAgIDxwb2x5Z29uIHBvaW50cz0iMTcuOCAzLjUgMy41IDMuNSAzLjUgMTcuOCAzLjUgMTcuOCAyNCAzOC4zIDM4LjMgMjQgMTcuOCAzLjUiIGZpbGw9Im5vbmUiIHN0cm9rZT0iI2NkMjI2NCIgc3Ryb2tlLWxpbmVjYXA9InJvdW5kIiBzdHJva2UtbGluZWpvaW49InJvdW5kIiBzdHJva2Utd2lkdGg9IjIuMDEiIHRyYW5zZm9ybT0idHJhbnNsYXRlKDIwLDIwKSIvPg0KPC9zdmc+" parent="1" vertex="1">
            <mxGeometry x="277.5" y="-95" width="43" height="43" as="geometry" />
          </mxCell>
        </object>
        <object label="chatbot-ui-d..." ECS-Task-Definition-light-bg-menu="chatbot-ui-dev-Task:2" id="arn:aws:ecs:ap-northeast-1:111917874443:task-definition/chatbot-ui-dev-Task:2">
          <mxCell style="shape=image;verticalLabelPosition=bottom;verticalAlign=top;fontSize=11;fontFamily=Tahoma;aspect=fixed;imageAspect=0;image=data:image/svg+xml,PHN2ZyB4bWxucz0iaHR0cDovL3d3dy53My5vcmcvMjAwMC9zdmciIHdpZHRoPSI3NSIgaGVpZ2h0PSI3NSIgdmlld0JveD0iMCAwIDc1IDc1Ij4NCiAgICA8dGl0bGU+DQogICAgICAgIGV4cC1FQ1MtVGFzay1EZWZpbml0aW9uLWxpZ2h0LWJnDQogICAgPC90aXRsZT4NCiAgICA8ZyB0cmFuc2Zvcm09InNjYWxlKDEuNSkiPg0KICAgICAgICA8cmVjdCB4PSI1LjYiIHk9IjQuOCIgd2lkdGg9IjIiIGhlaWdodD0iMjAuNiIgZmlsbD0iI2Q4NjYxMyIvPg0KICAgICAgICA8cmVjdCB4PSIxMS4zIiB5PSI0LjgiIHdpZHRoPSIyIiBoZWlnaHQ9IjIwLjYiIGZpbGw9IiNkODY2MTMiLz4NCiAgICAgICAgPHJlY3QgeD0iMTYuOSIgeT0iNC44IiB3aWR0aD0iMiIgaGVpZ2h0PSIyMC42IiBmaWxsPSIjZDg2NjEzIi8+DQogICAgICAgIDxyZWN0IHg9IjIyLjUiIHk9IjQuOCIgd2lkdGg9IjIiIGhlaWdodD0iMjAuNiIgZmlsbD0iI2Q4NjYxMyIvPg0KICAgICAgICA8cmVjdCB4PSIyOC4xIiB5PSI0LjgiIHdpZHRoPSIyIiBoZWlnaHQ9IjkuOSIgZmlsbD0iI2Q4NjYxMyIvPg0KICAgICAgICA8cmVjdCB4PSIzMy44IiB5PSI0LjgiIHdpZHRoPSIyIiBoZWlnaHQ9IjkuOSIgZmlsbD0iI2Q4NjYxMyIvPg0KICAgICAgICA8cmVjdCB4PSIzOS40IiB5PSI0LjgiIHdpZHRoPSIyIiBoZWlnaHQ9IjkuOSIgZmlsbD0iI2Q4NjYxMyIvPg0KICAgICAgICA8cGF0aCBkPSJNMjkuMSwzNy42SDMuNVYxMS40aDQzVjI0aDJWMTAuNGEuOTQuOTQsMCwwLDAtMS0xSDIuNWEuOTQuOTQsMCwwLDAtMSwxVjM4LjVhLjk0Ljk0LDAsMCwwLDEsMUgyOS4xWiIgdHJhbnNmb3JtPSJ0cmFuc2xhdGUoLTEuNSAtOS40KSIgZmlsbD0iI2Q4NjYxMyIvPg0KICAgICAgICA8cmVjdCB4PSIzMC40IiB5PSIxNy40IiB3aWR0aD0iMTUuOSIgaGVpZ2h0PSIyMS4yIiBmaWxsPSJub25lIiBzdHJva2U9IiNkODY2MTMiIHN0cm9rZS1saW5lam9pbj0icm91bmQiIHN0cm9rZS13aWR0aD0iMiIvPg0KICAgICAgICA8cmVjdCB4PSIzMi42IiB5PSIyMC4xIiB3aWR0aD0iMi43IiBoZWlnaHQ9IjIuNyIgZmlsbD0ibm9uZSIgc3Ryb2tlPSIjZDg2NjEzIiBzdHJva2UtbGluZWpvaW49InJvdW5kIiBzdHJva2Utd2lkdGg9IjIiLz4NCiAgICAgICAgPHJlY3QgeD0iMzIuNiIgeT0iMjYuMiIgd2lkdGg9IjIuNyIgaGVpZ2h0PSIyLjciIGZpbGw9Im5vbmUiIHN0cm9rZT0iI2Q4NjYxMyIgc3Ryb2tlLWxpbmVqb2luPSJyb3VuZCIgc3Ryb2tlLXdpZHRoPSIyIi8+DQogICAgICAgIDxsaW5lIHgxPSIzNi42IiB5MT0iMjEuNCIgeDI9IjQ0LjYiIHkyPSIyMS40IiBmaWxsPSJub25lIiBzdHJva2U9IiNkODY2MTMiIHN0cm9rZS1saW5lam9pbj0icm91bmQiIHN0cm9rZS13aWR0aD0iMiIvPg0KICAgICAgICA8bGluZSB4MT0iMzYuNiIgeTE9IjI3LjYiIHgyPSI0NC42IiB5Mj0iMjcuNiIgZmlsbD0ibm9uZSIgc3Ryb2tlPSIjZDg2NjEzIiBzdHJva2UtbGluZWpvaW49InJvdW5kIiBzdHJva2Utd2lkdGg9IjIiLz4NCiAgICAgICAgPHJlY3QgeD0iMzIuNiIgeT0iMzIuNCIgd2lkdGg9IjIuNyIgaGVpZ2h0PSIyLjciIGZpbGw9Im5vbmUiIHN0cm9rZT0iI2Q4NjYxMyIgc3Ryb2tlLWxpbmVqb2luPSJyb3VuZCIgc3Ryb2tlLXdpZHRoPSIyIi8+DQogICAgICAgIDxsaW5lIHgxPSIzNi42IiB5MT0iMzMuOCIgeDI9IjQ0LjYiIHkyPSIzMy44IiBmaWxsPSJub25lIiBzdHJva2U9IiNkODY2MTMiIHN0cm9rZS1saW5lam9pbj0icm91bmQiIHN0cm9rZS13aWR0aD0iMiIvPg0KICAgIDwvZz4NCjwvc3ZnPg0K" parent="1" vertex="1">
            <mxGeometry x="-490.0000000000001" y="109.9990905267737" width="43" height="43" as="geometry" />
          </mxCell>
        </object>
        <object label="TargetGroup" type="TargetGroup" id="TargetGroup-Multiple Availability Zones-vpc-035aac7f6efd7515b-ap-northeast-1-111917874443">
          <mxCell style="fillColor=none;strokeColor=#5A6C86;dashed=1;verticalAlign=top;fontSize=11;fontStyle=0;fontColor=#5A6C86;fontFamily=Tahoma;" parent="1" vertex="1">
            <mxGeometry x="-480.00223893382883" y="-214.99709278729966" width="103" height="103" as="geometry" />
          </mxCell>
        </object>
        <object label="TargetGroup" type="TargetGroup" id="TargetGroup-Multiple Availability Zones-vpc-0eec2b8f3084634d1-ap-northeast-1-111917874443">
          <mxCell style="fillColor=none;strokeColor=#5A6C86;dashed=1;verticalAlign=top;fontSize=11;fontStyle=0;fontColor=#5A6C86;fontFamily=Tahoma;" parent="1" vertex="1">
            <mxGeometry x="-100.00000000000006" y="-215.0009094732263" width="103" height="103" as="geometry" />
          </mxCell>
        </object>
        <object label="targetgroup/..." ELB-Target-group-light-bg="targetgroup/chatbot-ui-prod-TargetGroup/2f9a1ea3695657ec" id="arn:aws:elasticloadbalancing:ap-northeast-1:111917874443:targetgroup/chatbot-ui-prod-TargetGroup/2f9a1ea3695657ec">
          <mxCell style="shape=image;verticalLabelPosition=bottom;verticalAlign=top;fontSize=11;fontFamily=Tahoma;aspect=fixed;imageAspect=0;image=data:image/svg+xml,PHN2ZyB4bWxucz0iaHR0cDovL3d3dy53My5vcmcvMjAwMC9zdmciIHdpZHRoPSI3NSIgaGVpZ2h0PSI3NSIgdmlld0JveD0iMCAwIDc1IDc1Ij4NCjx0aXRsZT5leHAtRUxCLVRhcmdldC1ncm91cC1saWdodC1iZzwvdGl0bGU+DQo8cGF0aCBkPSJNNDcuNSwzOC41YTYuMTgsNi4xOCwwLDEsMCwwLTJINDBhMTQuMzksMTQuMzksMCwwLDAtMS40LTUuM2w5LTcuNmE2LjE5LDYuMTksMCwxLDAtMS04LjcsNi4xMiw2LjEyLDAsMCwwLTEuMywzLjksNS44OSw1Ljg5LDAsMCwwLDEsMy40bC04LjcsNy4zYTE0LjQ5LDE0LjQ5LDAsMSwwLTQsMjAuMSwxMy44NiwxMy44NiwwLDAsMCw0LTRsOC43LDcuM2E1Ljg5LDUuODksMCwwLDAtMSwzLjQsNi4yLDYuMiwwLDEsMCw2LjItNi4yLDYuNzYsNi43NiwwLDAsMC0zLjksMS4zbC05LTcuNkExNC4zOSwxNC4zOSwwLDAsMCw0MCwzOC41Wm02LjItNS4yYTQuMiw0LjIsMCwxLDEtNC4yLDQuMmgwQTQuMSw0LjEsMCwwLDEsNTMuNywzMy4zWk01MS42LDE0LjVhNC4yLDQuMiwwLDEsMS00LjIsNC4yLDQuMTYsNC4xNiwwLDAsMSw0LjItNC4yWm0wLDM3LjZhNC4yLDQuMiwwLDEsMS00LjIsNC4yaDBBNC4yMyw0LjIzLDAsMCwxLDUxLjYsNTIuMVpNMjUuNiw1MEExMi41LDEyLjUsMCwxLDEsMzguMSwzNy41LDEyLjUsMTIuNSwwLDAsMSwyNS42LDUwWiIgdHJhbnNmb3JtPSJ0cmFuc2xhdGUoLTEuNSAtMS44KSIgZmlsbD0iIzY5M2NjNSIvPjxjaXJjbGUgY3g9IjUxLjUyIiBjeT0iMTguNjkiIHI9IjEuNiIgdHJhbnNmb3JtPSJ0cmFuc2xhdGUoMC4zNyA0MC4xKSByb3RhdGUoLTQ1KSIgZmlsbD0iIzY5M2NjNSIvPjxjaXJjbGUgY3g9IjM1LjkiIGN5PSIzNS45IiByPSIzNC45IiBmaWxsPSJub25lIiBzdHJva2U9IiM2OTNjYzUiIHN0cm9rZS1taXRlcmxpbWl0PSIxMCIgc3Ryb2tlLXdpZHRoPSIyIi8+PGNpcmNsZSBjeD0iNTEuNjMiIGN5PSI1Ni40MiIgcj0iMS42IiB0cmFuc2Zvcm09InRyYW5zbGF0ZSgtMjYuMjcgNTEuMjMpIHJvdGF0ZSgtNDUpIiBmaWxsPSIjNjkzY2M1Ii8+PC9zdmc+" parent="1" vertex="1">
            <mxGeometry x="-450.00223893382883" y="-184.99709278729966" width="43" height="43" as="geometry" />
          </mxCell>
        </object>
        <object label="targetgroup/..." ELB-Target-group-light-bg="targetgroup/chatbot-ui-dev-TargetGroup/2ee14e2e5fa5ff24" id="arn:aws:elasticloadbalancing:ap-northeast-1:111917874443:targetgroup/chatbot-ui-dev-TargetGroup/2ee14e2e5fa5ff24">
          <mxCell style="shape=image;verticalLabelPosition=bottom;verticalAlign=top;fontSize=11;fontFamily=Tahoma;aspect=fixed;imageAspect=0;image=data:image/svg+xml,PHN2ZyB4bWxucz0iaHR0cDovL3d3dy53My5vcmcvMjAwMC9zdmciIHdpZHRoPSI3NSIgaGVpZ2h0PSI3NSIgdmlld0JveD0iMCAwIDc1IDc1Ij4NCjx0aXRsZT5leHAtRUxCLVRhcmdldC1ncm91cC1saWdodC1iZzwvdGl0bGU+DQo8cGF0aCBkPSJNNDcuNSwzOC41YTYuMTgsNi4xOCwwLDEsMCwwLTJINDBhMTQuMzksMTQuMzksMCwwLDAtMS40LTUuM2w5LTcuNmE2LjE5LDYuMTksMCwxLDAtMS04LjcsNi4xMiw2LjEyLDAsMCwwLTEuMywzLjksNS44OSw1Ljg5LDAsMCwwLDEsMy40bC04LjcsNy4zYTE0LjQ5LDE0LjQ5LDAsMSwwLTQsMjAuMSwxMy44NiwxMy44NiwwLDAsMCw0LTRsOC43LDcuM2E1Ljg5LDUuODksMCwwLDAtMSwzLjQsNi4yLDYuMiwwLDEsMCw2LjItNi4yLDYuNzYsNi43NiwwLDAsMC0zLjksMS4zbC05LTcuNkExNC4zOSwxNC4zOSwwLDAsMCw0MCwzOC41Wm02LjItNS4yYTQuMiw0LjIsMCwxLDEtNC4yLDQuMmgwQTQuMSw0LjEsMCwwLDEsNTMuNywzMy4zWk01MS42LDE0LjVhNC4yLDQuMiwwLDEsMS00LjIsNC4yLDQuMTYsNC4xNiwwLDAsMSw0LjItNC4yWm0wLDM3LjZhNC4yLDQuMiwwLDEsMS00LjIsNC4yaDBBNC4yMyw0LjIzLDAsMCwxLDUxLjYsNTIuMVpNMjUuNiw1MEExMi41LDEyLjUsMCwxLDEsMzguMSwzNy41LDEyLjUsMTIuNSwwLDAsMSwyNS42LDUwWiIgdHJhbnNmb3JtPSJ0cmFuc2xhdGUoLTEuNSAtMS44KSIgZmlsbD0iIzY5M2NjNSIvPjxjaXJjbGUgY3g9IjUxLjUyIiBjeT0iMTguNjkiIHI9IjEuNiIgdHJhbnNmb3JtPSJ0cmFuc2xhdGUoMC4zNyA0MC4xKSByb3RhdGUoLTQ1KSIgZmlsbD0iIzY5M2NjNSIvPjxjaXJjbGUgY3g9IjM1LjkiIGN5PSIzNS45IiByPSIzNC45IiBmaWxsPSJub25lIiBzdHJva2U9IiM2OTNjYzUiIHN0cm9rZS1taXRlcmxpbWl0PSIxMCIgc3Ryb2tlLXdpZHRoPSIyIi8+PGNpcmNsZSBjeD0iNTEuNjMiIGN5PSI1Ni40MiIgcj0iMS42IiB0cmFuc2Zvcm09InRyYW5zbGF0ZSgtMjYuMjcgNTEuMjMpIHJvdGF0ZSgtNDUpIiBmaWxsPSIjNjkzY2M1Ii8+PC9zdmc+" parent="1" vertex="1">
            <mxGeometry x="-70.00000000000006" y="-185.0009094732263" width="43" height="43" as="geometry" />
          </mxCell>
        </object>
        <mxCell id="arn:aws:iam::111917874443:role/chatbot-ui-dev-ECSRole-arn:aws:tags::111917874443:tag/STAGE=dev" style="html=1;endArrow=block;elbow=vertical;startArrow=none;endFill=1;strokeColor=#545B64;rounded=0;jumpStyle=gap;opacity=80;" parent="1" source="arn:aws:iam::111917874443:role/chatbot-ui-dev-ECSRole" target="arn:aws:tags::111917874443:tag/STAGE=dev" edge="1">
          <mxGeometry relative="1" as="geometry" />
        </mxCell>
        <mxCell id="arn:aws:iam::111917874443:role/chatbot-ui-prod-ECSRole-arn:aws:tags::111917874443:tag/STAGE=prod" style="html=1;endArrow=block;elbow=vertical;startArrow=none;endFill=1;strokeColor=#545B64;rounded=0;jumpStyle=gap;opacity=80;" parent="1" source="arn:aws:iam::111917874443:role/chatbot-ui-prod-ECSRole" target="arn:aws:tags::111917874443:tag/STAGE=prod" edge="1">
          <mxGeometry relative="1" as="geometry" />
        </mxCell>
      </root>
    </mxGraphModel>
  </diagram>
</mxfile>
